<?xml version="1.0" standalone="no"?>
<!DOCTYPE svg PUBLIC "-//W3C//DTD SVG 20010904//EN"
 "http://www.w3.org/TR/2001/REC-SVG-20010904/DTD/svg10.dtd">
<svg version="1.0" xmlns="http://www.w3.org/2000/svg"
 width="1504.000000pt" height="1504.000000pt" viewBox="0 0 1504.000000 1504.000000"
 preserveAspectRatio="xMidYMid meet">
<metadata>
Created by potrace 1.14, written by Peter Selinger 2001-2017
</metadata>
<g transform="translate(0.000000,1504.000000) scale(0.100000,-0.100000)"
fill="#000000" stroke="none">
<path d="M0 7520 l0 -7520 7520 0 7520 0 0 7520 0 7520 -7520 0 -7520 0 0
-7520z m4273 3345 c239 -36 440 -146 573 -313 60 -75 138 -237 163 -337 23
-90 41 -250 41 -361 0 -41 3 -74 8 -74 4 0 23 39 42 86 117 293 340 560 617
741 100 65 299 162 407 197 177 59 262 70 511 70 211 0 240 -2 355 -26 236
-51 484 -152 664 -272 191 -127 381 -326 521 -543 38 -60 55 -76 55 -53 0 6
20 46 45 88 232 402 736 685 1405 789 164 25 570 25 725 0 321 -53 581 -147
795 -287 507 -333 817 -875 917 -1605 17 -121 18 -257 18 -1890 0 -1860 0
-1861 -46 -2104 -85 -441 -321 -729 -671 -815 -204 -51 -482 -46 -676 10 -322
93 -545 367 -627 769 -47 233 -48 241 -55 2005 -5 1223 -10 1686 -19 1745 -64
423 -248 615 -592 615 -80 0 -203 -30 -269 -66 -257 -140 -445 -542 -524
-1124 -50 -357 -48 -321 -56 -1595 -5 -815 -11 -1246 -19 -1320 -43 -399 -136
-642 -315 -821 -165 -165 -351 -237 -641 -250 -403 -18 -679 100 -866 373 -79
114 -154 316 -184 493 -36 211 -38 274 -45 1960 -5 1213 -10 1697 -19 1755
-51 345 -187 529 -428 580 -212 45 -431 -13 -570 -151 -209 -210 -347 -591
-407 -1129 -34 -308 -38 -423 -46 -1520 -8 -1107 -12 -1239 -46 -1462 -44
-294 -146 -518 -305 -667 -181 -172 -353 -230 -679 -231 -298 0 -460 46 -632
183 -218 174 -331 434 -380 882 -19 172 -19 4474 0 4675 24 245 63 401 143
560 122 246 348 400 646 444 97 14 360 12 466 -4z"/>
</g>
</svg>
